<?xml version="1.0" encoding="utf-8"?>
<!-- Generator: Adobe Illustrator 25.1.0, SVG Export Plug-In . SVG Version: 6.00 Build 0)  -->
<svg version="1.1" id="Слой_1" xmlns="http://www.w3.org/2000/svg" xmlns:xlink="http://www.w3.org/1999/xlink" x="0px" y="0px"
	 viewBox="0 0 472 502" style="enable-background:new 0 0 472 502;" xml:space="preserve">
<style type="text/css">
	.st0{fill:url(#SVGID_1_);}
	.st1{fill:url(#SVGID_2_);}
	.st2{fill:url(#SVGID_3_);}
	.st3{fill:url(#SVGID_4_);}
</style>
<g>
	
		<linearGradient id="SVGID_1_" gradientUnits="userSpaceOnUse" x1="163.5081" y1="485.9865" x2="408.5081" y2="75.9865" gradientTransform="matrix(1 0 0 -1 0 502)">
		<stop  offset="0" style="stop-color:#48B8FF"/>
		<stop  offset="0.48" style="stop-color:#147CFF"/>
		<stop  offset="1" style="stop-color:#0719AD"/>
	</linearGradient>
	<path class="st0" d="M315,38c-70-3-131,23-170,59c-18,17-30,40-35,61l57,59c6-34,20-69,40-99C232,82,267,55,315,38z"/>
	
		<linearGradient id="SVGID_2_" gradientUnits="userSpaceOnUse" x1="31.8497" y1="407.3127" x2="276.8498" y2="-2.6873" gradientTransform="matrix(1 0 0 -1 0 502)">
		<stop  offset="0" style="stop-color:#48B8FF"/>
		<stop  offset="0.48" style="stop-color:#147CFF"/>
		<stop  offset="1" style="stop-color:#0719AD"/>
	</linearGradient>
	<path class="st1" d="M67,157c-21,27-29,60-27,94c3,47,36,89,96,108c-35-32-56-77-56-126l71,74l55-40c1,59-2,93-21,122
		c-21,30-56,50-101,59c42,11,87,14,115-3c32-19,44-60,44-116V182l-86,69L67,157z"/>
	
		<linearGradient id="SVGID_3_" gradientUnits="userSpaceOnUse" x1="178.3106" y1="494.8319" x2="423.3106" y2="84.8319" gradientTransform="matrix(1 0 0 -1 0 502)">
		<stop  offset="0" style="stop-color:#48B8FF"/>
		<stop  offset="0.48" style="stop-color:#147CFF"/>
		<stop  offset="1" style="stop-color:#0719AD"/>
	</linearGradient>
	<path class="st2" d="M232,147c20-13,51-19,82-16c47,4,86,29,105,68c18,38,11,85-19,116s-81,44-138,44V181c43,11,73,30,84,62l-46-10
		v75c38-6,65-19,79-41c12-19,9-40-4-56C356,188,323,174,232,147z"/>
	
		<linearGradient id="SVGID_4_" gradientUnits="userSpaceOnUse" x1="101.0456" y1="466.8464" x2="356.2838" y2="39.7133" gradientTransform="matrix(1 0 0 -1 0 502)">
		<stop  offset="0" style="stop-color:#48B8FF"/>
		<stop  offset="0.48" style="stop-color:#147CFF"/>
		<stop  offset="1" style="stop-color:#0719AD"/>
	</linearGradient>
	<path class="st3" d="M408.4,328.4C370.2,362.2,329,371.2,291,375c-12,27-39,58-73,77C292,448,363.4,417.4,408.4,328.4z"/>
</g>
</svg>
